<svg xmlns="http://www.w3.org/2000/svg" width="24.5" height="24.5" viewBox="0 0 24.5 24.5">
  <g id="_7089162_google_calendar_icon" data-name="7089162_google_calendar_icon" transform="translate(-6 -6)">
    <rect id="Rectangle_72" data-name="Rectangle 72" width="15" height="15" transform="translate(11 10.5)" fill="#fff"/>
    <path id="Path_45" data-name="Path 45" d="M25.68,20.184l.686.98,1.078-.784v5.684H28.62V18.616h-.98Z" transform="translate(-6.287 -4.03)" fill="#0462e7"/>
    <path id="Path_46" data-name="Path 46" d="M21.045,22.015a2.074,2.074,0,0,0,.689-1.531,2.248,2.248,0,0,0-2.325-2.156A2.283,2.283,0,0,0,17.142,20l1.128.287a1.139,1.139,0,0,1,1.139-.78.994.994,0,1,1,0,1.96H18.73V22.64h.679a1.271,1.271,0,0,1,1.356,1.116,1.229,1.229,0,0,1-1.314,1.116,1.268,1.268,0,0,1-1.3-.965L17,24.1a2.438,2.438,0,0,0,2.45,1.953,2.393,2.393,0,0,0,2.477-2.292A2.211,2.211,0,0,0,21.045,22.015Z" transform="translate(-3.514 -3.938)" fill="#0462e7"/>
    <path id="Path_47" data-name="Path 47" d="M27.292,39.444H13.681L13,36.722,13.681,34H27.292l.681,2.722Z" transform="translate(-2.236 -8.944)" fill="#ffec6e"/>
    <path id="Path_48" data-name="Path 48" d="M36.722,27.972l2.722-.681V13.681L36.722,13,34,13.681V27.292Z" transform="translate(-8.944 -2.236)" fill="#ffec6e"/>
    <path id="Path_49" data-name="Path 49" d="M25.056,11.444l.681-2.722L25.056,6H8.042A2.042,2.042,0,0,0,6,8.042V25.056l2.722.681,2.722-.681V11.444Z" transform="translate(0 0)" fill="#37a2ff"/>
    <path id="Path_50" data-name="Path 50" d="M34,34v5.444L39.444,34Z" transform="translate(-8.944 -8.944)" fill="#ff9050"/>
    <path id="Path_51" data-name="Path 51" d="M37.4,6H34v5.444h5.444v-3.4A2.042,2.042,0,0,0,37.4,6Z" transform="translate(-8.944 0)" fill="#7dc2ff"/>
    <path id="Path_52" data-name="Path 52" d="M8.042,39.444h3.4V34H6v3.4A2.042,2.042,0,0,0,8.042,39.444Z" transform="translate(0 -8.944)" fill="#7dc2ff"/>
  </g>
</svg>
