<svg xmlns="http://www.w3.org/2000/svg" width="19" height="19" viewBox="0 0 19 19">
  <g id="Group_116" data-name="Group 116" transform="translate(-110.5 -796.5)">
    <circle id="Ellipse_23" data-name="Ellipse 23" cx="9" cy="9" r="9" transform="translate(111 797)" fill="#fff"/>
    <g id="_172628_user_male_icon" data-name="172628_user_male_icon" transform="translate(111 797)">
      <circle id="Ellipse_22" data-name="Ellipse 22" cx="9" cy="9" r="9" fill="none" stroke="#000" stroke-linecap="round" stroke-miterlimit="10" stroke-width="1"/>
      <rect id="Rectangle_52" data-name="Rectangle 52" width="18" height="18" fill="none"/>
      <path id="Path_33" data-name="Path 33" d="M16.309,17.52A14.881,14.881,0,0,1,16.277,16a2.967,2.967,0,0,0,.813-1.76c.207-.017.532-.219.628-1.014a.743.743,0,0,0-.278-.743c.336-1.011,1.035-4.14-1.292-4.463A1.829,1.829,0,0,0,14.5,7.391c-3.187.059-3.572,2.407-2.873,5.1a.744.744,0,0,0-.278.743c.1.8.421,1,.628,1.014A2.96,2.96,0,0,0,12.809,16a14.884,14.884,0,0,1-.033,1.516c-.454,1.22-2.785,1.316-4.13,2.493a8.8,8.8,0,0,0,6.09,2.429,10.248,10.248,0,0,0,5.7-2.417C19.1,18.837,16.764,18.745,16.309,17.52Z" transform="translate(-5.533 -4.73)" fill="none" stroke="#000" stroke-linecap="round" stroke-miterlimit="10" stroke-width="1"/>
    </g>
  </g>
</svg>
