<svg xmlns="http://www.w3.org/2000/svg" width="20" height="20" viewBox="0 0 20 20">
  <g id="Group_109" data-name="Group 109" transform="translate(-312 -2334)">
    <g id="Group_101" data-name="Group 101" transform="translate(311.854 2334)">
      <circle id="Ellipse_28" data-name="Ellipse 28" cx="10" cy="10" r="10" transform="translate(0.146)" fill="#ebf4ff"/>
      <g id="icons" transform="translate(4.732 6.667)">
        <path id="check_x5F_mark_1_" d="M6.267,15.22,3.1,11.621a.508.508,0,0,1,0-.606l.5-.568a.369.369,0,0,1,.533,0l2.4,2.727,5.333-6.061a.369.369,0,0,1,.533,0l.5.568a.508.508,0,0,1,0,.606L6.8,15.22A.369.369,0,0,1,6.267,15.22Z" transform="translate(-3 -7)" fill="#0462e7"/>
      </g>
    </g>
  </g>
</svg>
